# xmcd
#
# Track frame offsets:
#	150
#	21479
#	32957
#	46604
#	56635
#	74717
#	86129
#	99280
#	112493
#	126313
#	140070
#	151579
#
# Disc length: 2201
#
# Revision: 2
# Processed by: cddbd v1.5.1PL0 Copyright (c) Steve Scherf et al.
# Submitted via: audiograbber 1.82.01
# Normalized: r1:DSETVAR1
#
DISCID=b008970c
DTITLE=Various Artist - Just Blues [CD 1) Shake That Thing
DYEAR=2003
DGENRE=Blues
TTITLE0=King, B.B. - Everyday I Have The Blues
TTITLE1=Hooker, John Lee - Boom Boom
TTITLE2=Turner, Big Joe - Shake Rattle And Roll
TTITLE3=Guy, Buddy - First Time I Met The Blues
TTITLE4=Lightnin' Hopkins - Shake That Thing
TTITLE5=James, Elmore - Look On Yonder Wall
TTITLE6=Brown, Charles - Rockin' Blues
TTITLE7=Maybelle, Big - I Won't Cry Anymore
TTITLE8=Leadbelly - Where Did You Sleep Last Night
TTITLE9=Washington, Dinah - Blues On My Weary Mind
TTITLE10=Williams, Joe - Bye Bye Baby Blues
TTITLE11=Memphis Slim - Slim's Blues
EXTD=
EXTT0=
EXTT1=
EXTT2=
EXTT3=
EXTT4=
EXTT5=
EXTT6=
EXTT7=
EXTT8=
EXTT9=
EXTT10=
EXTT11=
PLAYORDER=
